<svg width="40" height="40" viewBox="0 0 40 40" fill="none" xmlns="http://www.w3.org/2000/svg">
<path d="M15.6656 14.1551L18.3296 16.8191C19.2441 17.7336 20.7153 17.7336 21.6298 16.8191L23.8167 14.6322L24.2939 14.1551L37.1368 1.31213C37.6139 0.83499 37.2561 0 36.5801 0H32.0871C30.6159 0 29.2243 0.55666 28.2302 1.59046L19.9996 9.82107L17.2958 7.1173C16.3018 6.12326 14.9499 5.5666 13.5185 5.5666H7.07715L15.6656 14.1551Z" fill="white"/>
<path d="M24.294 25.845L21.63 23.181C20.7155 22.2665 19.2443 22.2665 18.3298 23.181L16.1429 25.3679L15.6658 25.845L2.86262 38.688C2.38548 39.1651 2.70357 40.0001 3.41928 40.0001H7.95208C9.38349 40.0001 10.7354 39.4434 11.7294 38.4494L19.9998 30.179L22.6638 32.843C23.6976 33.8768 25.0893 34.4335 26.5207 34.4335H32.8825L24.294 25.845Z" fill="white"/>
<path d="M9.82107 20.0002L7.1173 22.704C6.0835 23.7378 5.52684 25.0897 5.52684 26.5211V32.8829L14.1153 24.2945L16.7793 21.6304C17.6938 20.7159 17.6938 19.2448 16.7793 18.3302L1.31213 2.86305C0.83499 2.38591 0 2.704 0 3.37995V7.91275C0 9.38392 0.55666 10.7358 1.59046 11.7696L9.82107 20.0002Z" fill="white"/>
<path d="M38.4095 28.2312L30.2186 20.0006L32.9224 17.257C33.9164 16.263 34.4731 14.9111 34.4731 13.5195V7.07812L25.9244 15.6666L23.3001 18.3306C22.3856 19.2451 22.3856 20.7163 23.3001 21.6308L25.9244 24.3346L38.7276 37.1775C39.2047 37.6547 39.9999 37.2968 39.9999 36.6606V32.0483C39.9999 30.6169 39.4035 29.265 38.4095 28.2312Z" fill="white"/>
</svg>
